<?xml version="1.0" encoding="UTF-8"?>
<svg version="1.1" xmlns="http://www.w3.org/2000/svg" width="565" height="346">
<path d="M0 0 C186.45 0 372.9 0 565 0 C565 114.18 565 228.36 565 346 C378.55 346 192.1 346 0 346 C0 231.82 0 117.64 0 0 Z " fill="#FFFEFE" transform="translate(0,0)"/>
<path d="M0 0 C159.50550661 0 159.50550661 0 180.6875 20.0625 C191.47793765 31.39869678 198.47244734 44.78500637 202 60 C202.25487183 61.01453247 202.25487183 61.01453247 202.51489258 62.04956055 C206.71614687 80.32039478 205.82636775 102.49191321 199 120 C198.52691406 121.23105469 198.05382812 122.46210938 197.56640625 123.73046875 C188.87522353 143.25853765 173.30506418 154.98879815 154 163 C154.59634247 164.12244614 155.19268494 165.24489227 155.80709839 166.40135193 C162.30988901 178.67749564 168.60582576 191.04850137 174.8203125 203.47265625 C175.81487572 205.4585595 176.80949557 207.44443439 177.8041687 209.43028259 C179.86433821 213.5446997 181.92290709 217.65991295 183.98046875 221.77563477 C186.62160851 227.05801719 189.26830441 232.33759542 191.91630745 237.61653996 C193.96068336 241.69422014 196.00145885 245.77369402 198.04119492 249.85369682 C199.01677052 251.80366682 199.99364553 253.75298727 200.97183609 255.7016468 C202.32761536 258.40347515 203.67836784 261.10775743 205.02783203 263.81274414 C205.43290482 264.6172702 205.8379776 265.42179626 206.25532532 266.2507019 C209 271.77166294 209 271.77166294 209 274 C190.19 274 171.38 274 152 274 C149.36 268.72 146.72 263.44 144 258 C143.00355469 256.01871094 142.00710938 254.03742188 140.98046875 251.99609375 C135.69399733 241.48351995 130.49243746 230.93782331 125.44189453 220.30981445 C122.61850749 214.37223453 119.76848969 208.44837925 116.89453125 202.53515625 C116.53730988 201.79997269 116.1800885 201.06478912 115.81204224 200.30732727 C114.37941384 197.35979727 112.94635886 194.41248072 111.51037598 191.46658325 C110.50694554 189.40802708 109.50532714 187.34859683 108.50390625 185.2890625 C108.2095015 184.6867128 107.91509674 184.0843631 107.61177063 183.46376038 C105.290233 178.68419648 103.16208322 173.86468724 101 169 C76.745 168.505 76.745 168.505 52 168 C52 202.98 52 237.96 52 274 C34.84 274 17.68 274 0 274 C0 183.58 0 93.16 0 0 Z " fill="#FFA500" transform="translate(343,29)"/>
<path d="M0 0 C19.47 0 38.94 0 59 0 C63.95 9.9 63.95 9.9 69 20 C70.78884948 23.33235742 72.58573848 26.64228462 74.4375 29.9375 C80.01594757 40.01178536 85.265064 50.2448192 90.5 60.5 C95.61700728 70.52190612 100.73953106 80.52748161 106.1875 90.375 C110.80251943 98.72046586 115.25454371 107.14408548 119.64151001 115.61114502 C120.37641097 117.02915203 121.11270373 118.44643864 121.85043335 119.86297607 C122.87858085 121.83873535 123.90110446 123.81729645 124.921875 125.796875 C125.51581055 126.94510742 126.10974609 128.09333984 126.72167969 129.27636719 C128 132 128 132 128 134 C130.27019333 131.90539516 131.71740137 129.94821706 133.10961914 127.19726562 C133.49755142 126.43796753 133.8854837 125.67866943 134.28517151 124.8963623 C134.69766647 124.07462524 135.11016144 123.25288818 135.53515625 122.40625 C135.97331161 121.5455188 136.41146698 120.6847876 136.86289978 119.79797363 C138.26826326 117.03473306 139.66568531 114.26757031 141.0625 111.5 C142.88451008 107.90512722 144.70962923 104.31183786 146.53515625 100.71875 C146.98881561 99.82462402 147.44247498 98.93049805 147.90988159 98.00927734 C151.76973922 90.41603604 155.72625245 82.87619425 159.70678711 75.34570312 C162.92781088 69.25108548 166.08974674 63.12632812 169.25 57 C169.88539341 55.76996547 170.52089425 54.53998644 171.15649414 53.31005859 C172.45821832 50.7911243 173.75973571 48.27208342 175.06103516 45.75292969 C178.18354488 39.70874247 181.30925482 33.66622062 184.4375 27.625 C184.97987305 26.57570313 185.52224609 25.52640625 186.08105469 24.4453125 C190.32136247 16.25927041 194.66061512 8.13634665 199 0 C217.81 0 236.62 0 256 0 C256 90.42 256 180.84 256 274 C239.83 274 223.66 274 207 274 C207 208.99 207 143.98 207 77 C204.08175623 79.91824377 202.92631426 81.87379417 201.20703125 85.546875 C200.66739746 86.68632568 200.12776367 87.82577637 199.57177734 88.99975586 C199.14309357 89.9143306 199.14309357 89.9143306 198.70574951 90.84738159 C197.1637382 94.13186042 195.59651876 97.40421098 194.02734375 100.67578125 C193.69994202 101.35850601 193.37254028 102.04123077 193.03521729 102.74464417 C183.81801387 121.88572939 173.76181948 140.62597315 163.51708984 159.23193359 C160.71307695 164.34810647 157.95145544 169.48710925 155.1875 174.625 C154.6112085 175.69516357 154.03491699 176.76532715 153.44116211 177.86791992 C150.60987043 183.13005151 147.78622677 188.39613297 144.97746277 193.6703186 C143.62601069 196.20798287 142.27273609 198.74467387 140.91958618 201.28143311 C139.96465915 203.07401699 139.01291308 204.86826394 138.0612793 206.66259766 C134.90206624 212.58671662 131.64628797 218.36169459 128 224 C123.84540738 219.36527757 121.29486699 214.06766571 118.5 208.5625 C114.46426711 200.71964727 110.36919535 192.91964709 106.125 185.1875 C101.1378999 176.0932798 96.20393952 166.97180905 91.29492188 157.83520508 C88.37803707 152.40875183 85.45277188 146.987277 82.50390625 141.578125 C76.91077499 131.31684338 71.3484603 121.06019527 66.23876953 110.54833984 C64.95331819 107.90396833 63.66104201 105.26297085 62.36875916 102.62193298 C61.06865673 99.96176762 59.77296295 97.29947245 58.47848511 94.63656616 C57.82831661 93.2999521 57.17705799 91.96386772 56.52468872 90.62832642 C55.60627287 88.74628628 54.6930912 86.86179502 53.78125 84.9765625 C52.9778418 83.32261475 52.9778418 83.32261475 52.15820312 81.63525391 C51 79 51 79 51 77 C50.34 77 49.68 77 49 77 C49 142.01 49 207.02 49 274 C32.83 274 16.66 274 0 274 C0 183.58 0 93.16 0 0 Z " fill="#FFA501" transform="translate(23,29)"/>
<path d="M0 0 C11.9625 -0.0825 23.925 -0.165 36.25 -0.25 C40.00407227 -0.28641602 43.75814453 -0.32283203 47.62597656 -0.36035156 C52.26904297 -0.37841797 52.26904297 -0.37841797 54.45404053 -0.3817749 C55.95522834 -0.38785089 57.45639869 -0.40177879 58.9574585 -0.42230225 C69.66924778 -0.56122762 79.79109268 -0.15544058 89 6.0078125 C89.66 6.70648438 90.32 7.40515625 91 8.125 C91.680625 8.80820313 92.36125 9.49140625 93.0625 10.1953125 C98.93969028 18.7030194 99.6657728 27.13660778 99.57641602 37.19433594 C99.56256063 39.36549867 99.59670295 41.53232465 99.63476562 43.703125 C99.69020837 53.52573171 98.50544216 62.72668558 91.89282227 70.46630859 C84.0448662 78.37598482 74.5541696 80.41734789 63.71353149 80.46369934 C61.38813445 80.45253391 59.06347968 80.42230832 56.73828125 80.390625 C55.28007623 80.38472895 53.82186268 80.38065745 52.36364746 80.37841797 C47.01313417 80.35761908 41.66280322 80.30177454 36.3125 80.25 C24.329375 80.1675 12.34625 80.085 0 80 C0 53.6 0 27.2 0 0 Z " fill="#FFFEFD" transform="translate(395,74)"/>
</svg>
